# xmcd
# 
# Track frame offsets:
#     187
#     5460
#     24677
#     42355
#     61927
#     81372
#     102852
#     119272
#     123290
#     143395
# 
# Disc length: 2214
# 
# Revision: 3
# Processed by: cddbd v1.5.2PL0 Copyright (c) Steve Scherf et al.
# Submitted via: BonkEnc v1.0.15
# 
DISCID=7908a40a
DTITLE=TNT - Intuition
DYEAR=1989
DGENRE=Heavy Metal
TTITLE0=A Nation Free ( Intro )
TTITLE1=Caught Between The Tigers
TTITLE2=Tonight I'm Falling
TTITLE3=End Of The Line
TTITLE4=Intuition
TTITLE5=Forever Shine On
TTITLE6=Learn To Love
TTITLE7=Ordinary Lover
TTITLE8=Take Me Down ( Fallen Angel )
TTITLE9=Wisdom
EXTD=YEAR: 1989 ID3G: 79
EXTT0=
EXTT1=
EXTT2=
EXTT3=
EXTT4=
EXTT5=
EXTT6=
EXTT7=
EXTT8=
EXTT9=
PLAYORDER=
